#!OML:ASF G:\JayActor3\Patient Classification 1\Patient 1\Session 5\male.ASF
:FULLY-SPECIFIED
:DEGREES
623
root -0.166523 17.8768 -5.11985 0.663162 84.3668 -12.4623
lowerback 19.3556 -1.92485 1.58289
upperback 7.42794 -1.82442 -1.04314
thorax -2.91036 -0.680961 -1.62351
lowerneck 6.0843 1.38401 2.25879
upperneck -18.4517 2.64325 0.773576
head -6.59696 1.19815 -0.341492
rclavicle 1.47101e-014 -3.97569e-015
rhumerus -32.9999 -3.48852 -87.793
rradius 26.6127
rwrist 3.73824
rhand -21.9114 -9.32689
rfingers 7.12502
rthumb 4.49431 -39.2592
lclavicle 1.47101e-014 -3.97569e-015
lhumerus -32.7207 6.92999 83.8186
lradius 27.3555
lwrist 21.9092
lhand -19.7272 13.231
lfingers 7.12502
lthumb 6.60315 43.108
rfemur -39.3776 1.66069 23.4647
rtibia 31.8516
rfoot 12.5817 -10.7567
rtoes 12.2655
lfemur -16.1804 8.93659 -19.7266
ltibia 46.3108
lfoot 14.4996 0.53258
ltoes -14.3743
624
root -0.300306 17.846 -5.13772 3.80878 84.3817 -9.11543
lowerback 19.3469 -1.91192 1.26012
upperback 7.45872 -1.86627 -1.13646
thorax -2.8678 -0.702806 -1.53095
lowerneck 6.07484 1.39956 2.25984
upperneck -18.4146 2.66369 0.778848
head -6.58335 1.20766 -0.341054
rclavicle -1.78906e-014 1.07344e-014
rhumerus -33.0076 -3.46191 -87.8842
rradius 26.5971
rwrist 3.80159
rhand -21.8816 -9.29038
rfingers 7.12502
rthumb 4.52306 -39.2221
lclavicle -1.78906e-014 1.07344e-014
lhumerus -32.6382 6.93278 83.8037
lradius 27.3855
lwrist 21.9225
lhand -19.7698 13.1684
lfingers 7.12502
lthumb 6.5621 43.0467
rfemur -39.7835 1.81148 22.9878
rtibia 32.0219
rfoot 12.6255 -10.9806
rtoes 12.6571
lfemur -14.9259 8.75936 -20.1117
ltibia 44.0661
lfoot 13.5601 0.842562
ltoes -16.0019
625
root -0.437738 17.8146 -5.15662 7.03113 84.3837 -5.69842
lowerback 19.3461 -1.90153 0.930606
upperback 7.49607 -1.91161 -1.23472
thorax -2.82181 -0.72614 -1.43903
lowerneck 6.07108 1.41051 2.26185
upperneck -18.3953 2.67846 0.781634
head -6.57643 1.21449 -0.34137
rclavicle -3.33958e-014 2.38542e-015
rhumerus -33.0041 -3.44301 -87.9781
rradius 26.6079
rwrist 3.86235
rhand -21.8752 -9.23351
rfingers 7.12502
rthumb 4.5293 -39.1651
lclavicle -3.33958e-014 2.38542e-015
lhumerus -32.5318 6.9262 83.7894
lradius 27.4056
lwrist 21.9219
lhand -19.8082 13.1316
lfingers 7.12502
lthumb 6.525 43.011
rfemur -40.2049 1.93343 22.5086
rtibia 32.1716
rfoot 12.7203 -11.2136
rtoes 13.0323
lfemur -13.7435 8.47811 -20.5129
ltibia 41.9326
lfoot 12.3369 0.888645
ltoes -18.2973
626
root -0.579442 17.7835 -5.17623 10.2798 84.3842 -2.26945
lowerback 19.3576 -1.89701 0.596836
upperback 7.53491 -1.96439 -1.33327
thorax -2.78011 -0.753124 -1.34329
lowerneck 6.07873 1.41664 2.265
upperneck -18.4033 2.68803 0.782668
head -6.58024 1.21871 -0.342415
rclavicle 7.55382e-015 1.78906e-014
rhumerus -32.9971 -3.43308 -88.0734
rradius 26.6546
rwrist 3.89572
rhand -21.8879 -9.1856
rfingers 7.12502
rthumb 4.51701 -39.1174
lclavicle 7.55382e-015 1.78906e-014
lhumerus -32.4064 6.90882 83.7767
lradius 27.4183
lwrist 21.9101
lhand -19.838 13.1181
lfingers 7.12502
lthumb 6.49621 42.9985
rfemur -40.6435 2.0357 22.0249
rtibia 32.2822
rfoot 12.8678 -11.4931
rtoes 13.4251
lfemur -12.6779 8.14385 -20.9293
ltibia 40.0044
lfoot 10.9634 0.744469
ltoes -20.9228
627
root -0.725498 17.7533 -5.1962 13.4492 84.3908 1.06991
lowerback 19.3917 -1.89983 0.268101
upperback 7.57656 -2.02455 -1.42758
thorax -2.74651 -0.783532 -1.24401
lowerneck 6.0992 1.41851 2.26985
upperneck -18.4447 2.69369 0.782084
head -6.597 1.22091 -0.344417
rclavicle -5.56597e-015 1.47101e-014
rhumerus -32.9866 -3.43321 -88.1687
rradius 26.739
rwrist 3.88179
rhand -21.9279 -9.13699
rfingers 7.12502
rthumb 4.47837 -39.0696
lclavicle -5.56597e-015 1.47101e-014
lhumerus -32.2633 6.87799 83.7663
lradius 27.4281
lwrist 21.8873
lhand -19.8566 13.1225
lfingers 7.12502
lthumb 6.47821 43.0034
rfemur -41.0888 2.12202 21.548
rtibia 32.3374
rfoot 13.0952 -11.8102
rtoes 13.7163
lfemur -11.7499 7.81656 -21.3495
ltibia 38.3324
lfoot 9.47386 0.556236
ltoes -23.7719
628
root -0.876424 17.7242 -5.21626 16.4806 84.4042 4.2456
lowerback 19.4426 -1.90734 -0.0501704
upperback 7.61326 -2.08864 -1.5139
thorax -2.72631 -0.815941 -1.14101
lowerneck 6.13991 1.41555 2.27868
upperneck -18.5215 2.69509 0.779366
head -6.62864 1.2207 -0.347988
rclavicle 5.96354e-015 3.57812e-015
rhumerus -32.9803 -3.44308 -88.2641
rradius 26.8587
rwrist 3.81456
rhand -21.9836 -9.1189
rfingers 7.12502
rthumb 4.4246 -39.0527
lclavicle 5.96354e-015 3.57812e-015
lhumerus -32.1104 6.82818 83.76
lradius 27.4406
lwrist 21.8566
lhand -19.8698 13.1518
lfingers 7.12502
lthumb 6.46549 43.0331
rfemur -41.5518 2.20422 21.0815
rtibia 32.3235
rfoot 13.4069 -12.1923
rtoes 13.9625
lfemur -11.0022 7.56319 -21.7665
ltibia 36.9209
lfoot 8.05457 0.45571
ltoes -26.3457
629
root -1.03178 17.6966 -5.23559 19.292 84.4352 7.18384
lowerback 19.519 -1.92088 -0.355852
upperback 7.64616 -2.15785 -1.58602
thorax -2.72258 -0.850831 -1.02845
lowerneck 6.20461 1.4103 2.28944
upperneck -18.6296 2.69497 0.773084
head -6.67448 1.21959 -0.353447
rclavicle 1.86858e-014 6.36111e-015
rhumerus -32.9737 -3.45258 -88.3603
rradius 26.9964
rwrist 3.69885
rhand -22.0708 -9.11831
rfingers 7.12502
rthumb 4.34045 -39.0538
lclavicle 1.86858e-014 6.36111e-015
lhumerus -31.9553 6.76229 83.7593
lradius 27.4602
lwrist 21.8178
lhand -19.8936 13.1914
lfingers 7.12502
lthumb 6.44251 43.0735
rfemur -42.0095 2.29534 20.6309
rtibia 32.2275
rfoot 13.7854 -12.6726
rtoes 14.2292
lfemur -10.426 7.41036 -22.1584
ltibia 35.7235
lfoot 6.73531 0.488126
ltoes -28.4795
630
root -1.19166 17.6703 -5.25411 21.7653 84.4796 9.75456
lowerback 19.6105 -1.93724 -0.640519
upperback 7.67312 -2.22706 -1.64048
thorax -2.73229 -0.885763 -0.908642
lowerneck 6.2825 1.40401 2.30504
upperneck -18.7543 2.6941 0.761047
head -6.72792 1.21809 -0.361794
rclavicle 2.78299e-015 1.55052e-014
rhumerus -32.96 -3.44991 -88.4595
rradius 27.1388
rwrist 3.55619
rhand -22.1643 -9.13098
rfingers 7.12502
rthumb 4.25012 -39.0683
lclavicle 2.78299e-015 1.55052e-014
lhumerus -31.7999 6.6858 83.7639
lradius 27.4905
lwrist 21.7768
lhand -19.9382 13.2397
lfingers 7.12502
lthumb 6.39945 43.123
rfemur -42.4645 2.40042 20.2081
rtibia 32.035
rfoot 14.2193 -13.2713
rtoes 14.6437
lfemur -10.028 7.37014 -22.5094
ltibia 34.6852
lfoot 5.50148 0.604983
ltoes -30.2048
631
root -1.35499 17.6462 -5.27203 23.8543 84.5338 11.9173
lowerback 19.7148 -1.9547 -0.90031
upperback 7.6976 -2.29327 -1.67804
thorax -2.75075 -0.919097 -0.785262
lowerneck 6.36196 1.39825 2.3247
upperneck -18.8772 2.69364 0.744847
head -6.781 1.21681 -0.372193
rclavicle -2.46493e-014 2.94201e-014
rhumerus -32.9291 -3.4315 -88.5614
rradius 27.2674
rwrist 3.41494
rhand -22.2514 -9.16039
rfingers 7.12502
rthumb 4.16603 -39.0994
lclavicle -2.46493e-014 2.94201e-014
lhumerus -31.6433 6.60452 83.7731
lradius 27.53
lwrist 21.7455
lhand -20.0133 13.2911
lfingers 7.12502
lthumb 6.32698 43.1766
rfemur -42.893 2.51996 19.8129
rtibia 31.7306
rfoot 14.6828 -14.0085
rtoes 15.2995
lfemur -9.77886 7.4288 -22.8116
ltibia 33.7595
lfoot 4.38949 0.747076
ltoes -31.6336
632
root -1.52132 17.625 -5.28964 25.5355 84.5955 13.642
lowerback 19.8192 -1.97336 -1.13289
upperback 7.7214 -2.35617 -1.69924
thorax -2.76979 -0.950735 -0.660554
lowerneck 6.4244 1.39461 2.34947
upperneck -18.981 2.69431 0.722364
head -6.82485 1.21648 -0.385204
rclavicle -4.25399e-014 4.77083e-015
rhumerus -32.8697 -3.38518 -88.6692
rradius 27.3721
rwrist 3.29879
rhand -22.3149 -9.17471
rfingers 7.12502
rthumb 4.10468 -39.1149
lclavicle -4.25399e-014 4.77083e-015
lhumerus -31.4803 6.5268 83.7857
lradius 27.574
lwrist 21.7304
lhand -20.1138 13.3457
lfingers 7.12502
lthumb 6.22994 43.234
rfemur -43.2908 2.65282 19.4425
rtibia 31.3007
rfoot 15.1586 -14.9043
rtoes 16.2768
lfemur -9.67315 7.57309 -23.0672
ltibia 32.94
lfoot 3.39933 0.881405
ltoes -32.853
633
root -1.68958 17.6073 -5.30772 26.7773 84.6542 14.898
lowerback 19.9138 -1.99127 -1.33308
upperback 7.74899 -2.412 -1.70857
thorax -2.78008 -0.978731 -0.543345
lowerneck 6.46021 1.39381 2.37973
upperneck -19.0602 2.69693 0.694557
head -6.85592 1.21752 -0.400497
rclavicle -7.55382e-015 7.95139e-016
rhumerus -32.7742 -3.31941 -88.7805
rradius 27.4527
rwrist 3.22091
rhand -22.3655 -9.176
rfingers 7.12502
rthumb 4.05584 -39.1171
lclavicle -7.55382e-015 7.95139e-016
lhumerus -31.3014 6.45759 83.8011
lradius 27.6141
lwrist 21.7389
lhand -20.2294 13.3991
lfingers 7.12502
lthumb 6.11836 43.2907
rfemur -43.6491 2.79952 19.0903
rtibia 30.7387
rfoot 15.6593 -15.9342
rtoes 17.4882
lfemur -9.69824 7.80534 -23.2864
ltibia 32.2388
lfoot 2.52609 1.00884
ltoes -33.8363
634
root -1.85955 17.5933 -5.32661 27.6893 84.7056 15.7825
lowerback 19.9839 -2.00792 -1.50637
upperback 7.77734 -2.46137 -1.71085
thorax -2.77749 -1.00366 -0.435835
lowerneck 6.46387 1.39436 2.41536
upperneck -19.1149 2.69988 0.664176
head -6.87329 1.21902 -0.416987
rclavicle -2.8625e-014 -2.34566e-014
rhumerus -32.6449 -3.23974 -88.8946
rradius 27.5147
rwrist 3.17881
rhand -22.371 -9.17547
rfingers 7.12502
rthumb 4.0505 -39.1167
lclavicle -2.8625e-014 -2.34566e-014
lhumerus -31.1055 6.39375 83.8185
lradius 27.6483
lwrist 21.7725
lhand -20.3489 13.4477
lfingers 7.12502
lthumb 6.00298 43.3427
rfemur -43.9833 2.97038 18.7302
rtibia 30.0482
rfoot 16.16 -17.1139
rtoes 18.914
lfemur -9.87744 8.13779 -23.4857
ltibia 31.6871
lfoot 1.7556 1.09993
ltoes -34.6102
635
root -2.03003 17.5825 -5.34609 28.3271 84.7511 16.3623
lowerback 20.0333 -2.02367 -1.65625
upperback 7.81058 -2.50486 -1.70911
thorax -2.75959 -1.0257 -0.339205
lowerneck 6.4374 1.39553 2.45735
upperneck -19.1546 2.70313 0.632402
head -6.88043 1.22078 -0.434563
rclavicle 5.96354e-015 -1.19271e-015
rhumerus -32.4882 -3.15338 -89.0113
rradius 27.564
rwrist 3.1708
rhand -22.3509 -9.15647
rfingers 7.12502
rthumb 4.06989 -39.0973
lclavicle 5.96354e-015 -1.19271e-015
lhumerus -30.8916 6.33701 83.8351
lradius 27.6729
lwrist 21.8192
lhand -20.4589 13.4837
lfingers 7.12502
lthumb 5.89678 43.3817
rfemur -44.2862 3.18188 18.343
rtibia 29.2474
rfoot 16.6603 -18.3877
rtoes 20.3529
lfemur -10.199 8.57589 -23.6656
ltibia 31.2964
lfoot 1.0432 1.1243
ltoes -35.2201
